<svg id="Warstwa_1" data-name="Warstwa 1" xmlns="http://www.w3.org/2000/svg" width="319.37" height="106.36" viewBox="0 0 319.37 106.36">
  <defs>
    <style>
      .cls-1 {
        fill: #30183c;
      }

      .cls-2 {
        fill: #c5921f;
      }
    </style>
  </defs>
  <g>
    <path class="cls-1" d="M608.36,383.34,603.05,381c-24.53-10.66-56.37-14-78.77-14.9a1,1,0,0,1-.95-1,1,1,0,0,1,1-1c21,.86,50.33,3.83,74.3,13-18.89-16.83-37.88-28.46-62.51-38.41a1,1,0,0,1,.74-1.84c26.66,10.77,46.77,23.49,67.23,42.55Z" transform="translate(-523.32 -331.32)"/>
    <path class="cls-1" d="M593.78,376.9a405.38,405.38,0,0,0-68.55-16,.59.59,0,0,1,.16-1.16,405.86,405.86,0,0,1,68.39,17.18" transform="translate(-523.32 -331.32)"/>
    <path class="cls-1" d="M597,376.69c-22.78-8.75-46.22-16-70.24-20.4a.58.58,0,0,1,.21-1.15c24,4.78,47.36,12.43,70,21.55" transform="translate(-523.32 -331.32)"/>
    <path class="cls-1" d="M593,374.45A335,335,0,0,0,528.44,352a.59.59,0,0,1,.27-1.14A335.46,335.46,0,0,1,593,374.45" transform="translate(-523.32 -331.32)"/>
    <path class="cls-1" d="M595,374.66c-20.48-11.24-42.06-20.73-64.63-26.89a.59.59,0,0,1,.31-1.13c22.52,6.55,44,16.41,64.32,28" transform="translate(-523.32 -331.32)"/>
    <path class="cls-1" d="M597.4,375c-20.42-12.63-41.94-23.71-64.64-31.64a.59.59,0,0,1,.39-1.11c22.61,8.32,44,19.77,64.25,32.75" transform="translate(-523.32 -331.32)"/>
  </g>
  <path class="cls-2" d="M536.74,376.77c1.77-3.54,5.1-5.7,10-5.16,20.57,2.28,45.65,8.29,62.17,16.43a127.18,127.18,0,0,0-59.77,5.12,13.32,13.32,0,0,0,1.18-1.49c4.22-6.19,3.59-14.84-2.09-18.45-1.91-1.22-7.05-2.1-11.47,3.55" transform="translate(-523.32 -331.32)"/>
  <path class="cls-2" d="M550.81,400c.44-3,2.42-5.23,6.09-6.22a134.09,134.09,0,0,1,51.27-3.49c-15.51,2.68-31.85,9.33-44.26,18.75a10.44,10.44,0,0,0,.51-1.39c1.6-5.57-1-11.78-6-13.06-1.7-.43-5.69.17-7.58,5.41" transform="translate(-523.32 -331.32)"/>
  <path class="cls-2" d="M579.21,427.74c5.41-12.78,6.35-22.14,23.71-30.24,1-.47,11.13-4.19,13.23-5.21,7.61-3.66,12.9-9.38,6.74-15.54a85.69,85.69,0,0,0-8-6.51c-3.33-2.45-7-4.59-10.22-7-3-2.23-3.94-4.88-2.64-7.76,1.58-3.48,6.14-5.52,11.53-5.14a18.15,18.15,0,0,1,7.36,2.23c.95.51.92,1,1.93,1.63a4,4,0,0,0,.23-.52c.27-1.22,1-2.37.23-3.51a13.67,13.67,0,0,0-4.45-4c-3-1.83-6.07-3.57-9-5.42a14.9,14.9,0,0,1-6.14-9.39c-2.17,5.12-1.53,8.68,1.85,12.57-4.08-.11-8.86,1.21-14.15,5.91a29.68,29.68,0,0,1,13.46-1.49c-6.31.88-10.93,4.16-11.65,8.35-.66,3.81.76,7.3,4.36,10.31,2.21,1.85,4.85,3.49,7.32,5.2,15.06,10.75,11.79,18.61,2.2,22.21-30.21,9.93-52.1,25-66.72,43.3,14.1-7.19,28.13-14.16,38.78-9.94" transform="translate(-523.32 -331.32)"/>
  <g>
    <path class="cls-2" d="M681.83,348.47c-.15,1.43-.25,2.82-.31,4.16s-.09,2.37-.09,3.08q0,1.37.06,2.55c0,.79.08,1.49.11,2.1h-1.3a35.26,35.26,0,0,0-1.07-6.26,5.51,5.51,0,0,0-2.38-3.31,10.54,10.54,0,0,0-5.27-1H668a10.29,10.29,0,0,0-2.92.31,2,2,0,0,0-1.33,1.3,10.49,10.49,0,0,0-.34,3.09v28.07a8.43,8.43,0,0,0,.43,3.06,2.35,2.35,0,0,0,1.67,1.36,17.31,17.31,0,0,0,3.62.45v1.13c-1-.07-2.23-.12-3.74-.14s-3,0-4.58,0-2.85,0-4.13,0-2.32.07-3.12.14v-1.13a11.24,11.24,0,0,0,2.92-.45,2.06,2.06,0,0,0,1.33-1.36,10.2,10.2,0,0,0,.34-3.06V354.47a10.16,10.16,0,0,0-.34-3.09A2.1,2.1,0,0,0,656.5,350a9.53,9.53,0,0,0-2.92-.43v-1.13c1.4,0,2.87.07,4.42.08l4.58.06,4.22,0H670l5.92,0Q679.22,348.58,681.83,348.47Zm-8.77,19.92v1.14H661.74v-1.14Zm1.07-7.47c-.15,2.15-.22,3.79-.2,4.93s0,2.17,0,3.11,0,2,.06,3.11.13,2.78.28,4.93H673q-.22-1.81-.54-3.54a5.42,5.42,0,0,0-1.36-2.83,4.69,4.69,0,0,0-3.53-1.1v-1.14a4.59,4.59,0,0,0,2.85-.76,4.4,4.4,0,0,0,1.45-1.95,11,11,0,0,0,.62-2.47c.11-.85.23-1.61.34-2.29Z" transform="translate(-523.32 -331.32)"/>
    <path class="cls-2" d="M714,348.47c-.15,1.32-.26,2.6-.31,3.85s-.09,2.19-.09,2.83,0,1.33.06,2,.07,1.14.11,1.56h-1.3a28,28,0,0,0-1-5.3,4.6,4.6,0,0,0-2.13-2.77,9.62,9.62,0,0,0-4.5-.82h-4.69a10.24,10.24,0,0,0-2.92.31,2,2,0,0,0-1.33,1.3,10.16,10.16,0,0,0-.34,3.09v28.07a10.2,10.2,0,0,0,.34,3.06,2,2,0,0,0,1.33,1.33,10.24,10.24,0,0,0,2.92.31h4.13a12,12,0,0,0,5.4-1,5.57,5.57,0,0,0,2.66-3.14,24.4,24.4,0,0,0,1.22-5.92h1.3a39.63,39.63,0,0,0-.17,4.08c0,.72,0,1.74.09,3.08s.16,2.73.31,4.16c-1.92-.07-4.1-.12-6.51-.14l-6.45,0H699l-4.22,0-4.58.06-4.42.08v-1.13a11.31,11.31,0,0,0,2.92-.45A2.06,2.06,0,0,0,690,385.6a10.54,10.54,0,0,0,.34-3.06V354.47a10.49,10.49,0,0,0-.34-3.09,2.1,2.1,0,0,0-1.33-1.35,9.59,9.59,0,0,0-2.92-.43v-1.13c1.4,0,2.87.07,4.42.08l4.58.06,4.22,0h3.2l5.91,0Q711.44,348.58,714,348.47Zm-9.74,19.36V369H693.94v-1.13Zm1.64-7.47c-.15,2.15-.21,3.79-.19,4.92s0,2.17,0,3.11,0,2,.06,3.12.13,2.77.28,4.92h-1.3q-.22-1.81-.54-3.54a5.34,5.34,0,0,0-1.36-2.83,4.72,4.72,0,0,0-3.53-1.1v-1.13a4.64,4.64,0,0,0,2.86-.77,4.38,4.38,0,0,0,1.44-1.95,10.82,10.82,0,0,0,.62-2.46c.11-.85.23-1.62.34-2.29Z" transform="translate(-523.32 -331.32)"/>
    <path class="cls-2" d="M755.81,348.47v1.13a7,7,0,0,0-2.91.57,2.56,2.56,0,0,0-1.33,1.64,11.63,11.63,0,0,0-.34,3.22v33.8h-1.31l-23.77-36.74V382a10.86,10.86,0,0,0,.37,3.2,2.53,2.53,0,0,0,1.47,1.64,9.91,9.91,0,0,0,3.31.59v1.13c-.68-.07-1.57-.12-2.66-.14l-3.11,0-2.86,0c-1,0-1.77.07-2.41.14v-1.13a7.91,7.91,0,0,0,2.92-.59,2.52,2.52,0,0,0,1.33-1.64,11.76,11.76,0,0,0,.34-3.2V354.47a10.16,10.16,0,0,0-.34-3.09,2.1,2.1,0,0,0-1.33-1.35,9.53,9.53,0,0,0-2.92-.43v-1.13c.64,0,1.45.07,2.41.11s1.91.06,2.86.06,1.62,0,2.38-.06l2-.11,20,30.79V355a11.14,11.14,0,0,0-.36-3.22,2.64,2.64,0,0,0-1.48-1.64,8.76,8.76,0,0,0-3.31-.57v-1.13c.68,0,1.58.07,2.69.11s2.14.06,3.09.06,2,0,2.91-.06S755.21,348.51,755.81,348.47Z" transform="translate(-523.32 -331.32)"/>
    <path class="cls-2" d="M774.66,348.47v1.13a9.46,9.46,0,0,0-2.91.43,2.1,2.1,0,0,0-1.34,1.35,10.57,10.57,0,0,0-.33,3.09v28.07a10.61,10.61,0,0,0,.33,3.06,2,2,0,0,0,1.34,1.36,11.15,11.15,0,0,0,2.91.45v1.13c-.87-.07-1.95-.12-3.25-.14s-2.62,0-3.94,0c-1.47,0-2.85,0-4.13,0s-2.32.07-3.11.14v-1.13a11.22,11.22,0,0,0,2.91-.45,2,2,0,0,0,1.33-1.36,10.2,10.2,0,0,0,.34-3.06V354.47a10.16,10.16,0,0,0-.34-3.09,2.08,2.08,0,0,0-1.33-1.35,9.51,9.51,0,0,0-2.91-.43v-1.13c.79,0,1.83.07,3.11.11s2.66.06,4.13.06c1.32,0,2.63,0,3.94-.06S773.79,348.51,774.66,348.47Z" transform="translate(-523.32 -331.32)"/>
    <path class="cls-2" d="M793.85,348.47v1.13a9.53,9.53,0,0,0-2.92.43,2.1,2.1,0,0,0-1.33,1.35,10.49,10.49,0,0,0-.34,3.09v28.07a10.54,10.54,0,0,0,.34,3.06,2.06,2.06,0,0,0,1.33,1.36,11.24,11.24,0,0,0,2.92.45v1.13c-.87-.07-2-.12-3.26-.14s-2.61,0-3.93,0-2.85,0-4.13,0-2.32.07-3.12.14v-1.13a11.24,11.24,0,0,0,2.92-.45,2.06,2.06,0,0,0,1.33-1.36,10.2,10.2,0,0,0,.34-3.06V354.47a10.16,10.16,0,0,0-.34-3.09,2.1,2.1,0,0,0-1.33-1.35,9.53,9.53,0,0,0-2.92-.43v-1.13c.8,0,1.83.07,3.12.11s2.66.06,4.13.06,2.63,0,3.93-.06S793,348.51,793.85,348.47Zm18,0v1.13a9.61,9.61,0,0,0-3.4,1.13,11.46,11.46,0,0,0-3.28,3l-10.93,14,1.25-2.77,13.58,19a8.6,8.6,0,0,0,2.1,2.21,8.77,8.77,0,0,0,2.89,1.24v1.13c-.91-.07-2-.12-3.37-.14l-3.43,0-2.35,0c-.92,0-2.08.07-3.48.14v-1.13a3.75,3.75,0,0,0,2.44-.68c.34-.37.2-1-.4-1.86l-8.26-12.46a17.21,17.21,0,0,0-2-2.63,4.52,4.52,0,0,0-1.81-1.16,9.7,9.7,0,0,0-2.35-.34v-1.13a8.31,8.31,0,0,0,6.68-3.17l5.43-6.91a18.19,18.19,0,0,0,2.55-4,2.37,2.37,0,0,0-.06-2.52c-.49-.58-1.53-.89-3.11-.93v-1.13c.71,0,1.45.07,2.2.08l2.24.06,2.07,0c1,0,1.88,0,2.71-.06S811.28,348.51,811.85,348.47Z" transform="translate(-523.32 -331.32)"/>
    <path class="cls-2" d="M828.6,347.85a10.92,10.92,0,0,1,4.3.65,14.92,14.92,0,0,1,2.61,1.44c.45.26.82.46,1.1.59a1.86,1.86,0,0,0,.82.2.85.85,0,0,0,.82-.62,7.88,7.88,0,0,0,.43-1.87H840c0,.64-.08,1.41-.14,2.29s-.1,2.06-.11,3.51,0,3.37,0,5.75h-1.3a16.54,16.54,0,0,0-1.19-5.21,10,10,0,0,0-3-4.07,7.88,7.88,0,0,0-5.13-1.59,7,7,0,0,0-5,1.81,6.2,6.2,0,0,0-1.95,4.76,6.86,6.86,0,0,0,1.3,4.27,13.09,13.09,0,0,0,3.48,3.11q2.18,1.39,4.73,3a57,57,0,0,1,5.23,3.59,15,15,0,0,1,3.62,3.93,9.7,9.7,0,0,1,1.33,5.21,10.26,10.26,0,0,1-1.64,6,10,10,0,0,1-4.36,3.57,14.84,14.84,0,0,1-6,1.19,13.55,13.55,0,0,1-4.75-.68,21.22,21.22,0,0,1-3-1.42,4.06,4.06,0,0,0-1.92-.79.87.87,0,0,0-.83.62,8.09,8.09,0,0,0-.42,1.87h-1.3c.07-.79.12-1.73.14-2.8s0-2.48.06-4.22,0-3.92,0-6.56h1.31a23.48,23.48,0,0,0,1.27,6.34,10.46,10.46,0,0,0,3.23,4.72,8.85,8.85,0,0,0,5.8,1.78,8.44,8.44,0,0,0,3.54-.76,6.45,6.45,0,0,0,2.74-2.43,7.87,7.87,0,0,0,1.08-4.33,7.32,7.32,0,0,0-1.11-4.05,12.58,12.58,0,0,0-3.08-3.23,49.79,49.79,0,0,0-4.64-3.08q-2.67-1.65-5-3.34a13.83,13.83,0,0,1-3.71-3.94,10,10,0,0,1-1.39-5.4,9.51,9.51,0,0,1,1.5-5.52,9,9,0,0,1,3.94-3.23A13.12,13.12,0,0,1,828.6,347.85Z" transform="translate(-523.32 -331.32)"/>
  </g>
  <g>
    <path class="cls-1" d="M653.58,409V398h1.34v5.48h.13l5-5.48h1.75l-4.64,5,4.64,6.07h-1.62l-3.84-5.14-1.39,1.55V409Z" transform="translate(-523.32 -331.32)"/>
    <path class="cls-1" d="M664,409h-1.4L666.6,398H668L672.05,409h-1.41l-3.3-9.31h-.09Zm.52-4.32h5.65v1.19h-5.65Z" transform="translate(-523.32 -331.32)"/>
    <path class="cls-1" d="M673.77,409V398h1.34v9.87h5.14V409Z" transform="translate(-523.32 -331.32)"/>
    <path class="cls-1" d="M682.32,409V398H689v1.19h-5.34v3.73h5v1.19h-5v3.76h5.42V409Z" transform="translate(-523.32 -331.32)"/>
    <path class="cls-1" d="M700.18,398V409h-1.29l-6-8.68h-.11V409h-1.33V398h1.29l6,8.7h.11V398Z" transform="translate(-523.32 -331.32)"/>
    <path class="cls-1" d="M706.27,409h-3.41V398h3.56a5.45,5.45,0,0,1,2.76.66,4.36,4.36,0,0,1,1.75,1.9,6.52,6.52,0,0,1,.61,2.95,6.64,6.64,0,0,1-.62,3,4.35,4.35,0,0,1-1.79,1.91A5.76,5.76,0,0,1,706.27,409Zm-2.07-1.19h2a4.46,4.46,0,0,0,2.27-.53,3.19,3.19,0,0,0,1.34-1.51,5.49,5.49,0,0,0,.44-2.32,5.6,5.6,0,0,0-.43-2.31,3.23,3.23,0,0,0-1.31-1.49,4.11,4.11,0,0,0-2.16-.52H704.2Z" transform="translate(-523.32 -331.32)"/>
    <path class="cls-1" d="M713.72,409h-1.4L716.38,398h1.38L721.82,409h-1.4l-3.31-9.31H717Zm.52-4.32h5.66v1.19h-5.66Z" transform="translate(-523.32 -331.32)"/>
    <path class="cls-1" d="M723.55,409V398h3.73a4.58,4.58,0,0,1,2.13.44,2.87,2.87,0,0,1,1.23,1.21,3.66,3.66,0,0,1,.4,1.74,3.59,3.59,0,0,1-.4,1.73,2.83,2.83,0,0,1-1.23,1.19,4.5,4.5,0,0,1-2.11.43h-3v-1.21h3a3.38,3.38,0,0,0,1.43-.26,1.68,1.68,0,0,0,.79-.74,2.82,2.82,0,0,0,0-2.3,1.69,1.69,0,0,0-.79-.77,3.24,3.24,0,0,0-1.44-.27h-2.35V409Zm5.2-5,2.72,5h-1.55l-2.68-5Z" transform="translate(-523.32 -331.32)"/>
    <path class="cls-1" d="M732.9,409v-1l6-8.89h-6V398h7.62v1l-6,8.9h6V409Z" transform="translate(-523.32 -331.32)"/>
    <path class="cls-1" d="M742.76,409V398h6.68v1.19H744.1v3.73h5v1.19h-5v3.76h5.42V409Z" transform="translate(-523.32 -331.32)"/>
    <path class="cls-1" d="M756.13,409V398h3.74a4.36,4.36,0,0,1,2.13.47,2.9,2.9,0,0,1,1.22,1.26,3.84,3.84,0,0,1,.4,1.77,4,4,0,0,1-.39,1.77,3,3,0,0,1-1.23,1.28,4.25,4.25,0,0,1-2.11.47h-2.68v-1.19h2.64a2.83,2.83,0,0,0,1.43-.31,1.79,1.79,0,0,0,.78-.83,3,3,0,0,0,0-2.38,1.79,1.79,0,0,0-.79-.82,3,3,0,0,0-1.45-.3h-2.35V409Z" transform="translate(-523.32 -331.32)"/>
    <path class="cls-1" d="M775.11,403.51a6.76,6.76,0,0,1-.63,3,4.76,4.76,0,0,1-1.73,2,4.95,4.95,0,0,1-5,0,4.76,4.76,0,0,1-1.73-2,7.58,7.58,0,0,1,0-6,4.8,4.8,0,0,1,1.73-2,4.95,4.95,0,0,1,5,0,4.8,4.8,0,0,1,1.73,2A6.77,6.77,0,0,1,775.11,403.51Zm-1.3,0a5.54,5.54,0,0,0-.47-2.43,3.57,3.57,0,0,0-1.29-1.49,3.5,3.5,0,0,0-3.64,0,3.57,3.57,0,0,0-1.29,1.49,6.49,6.49,0,0,0,0,4.85,3.54,3.54,0,0,0,1.29,1.5,3.56,3.56,0,0,0,3.64,0,3.54,3.54,0,0,0,1.29-1.5A5.5,5.5,0,0,0,773.81,403.51Z" transform="translate(-523.32 -331.32)"/>
    <path class="cls-1" d="M777.36,409V398h1.34v9.87h5.13V409Z" transform="translate(-523.32 -331.32)"/>
    <path class="cls-1" d="M787.25,398V409h-1.34V398Z" transform="translate(-523.32 -331.32)"/>
    <path class="cls-1" d="M797.48,401.44a3.71,3.71,0,0,0-.47-1,3.25,3.25,0,0,0-.68-.75,3.22,3.22,0,0,0-.9-.47,3.79,3.79,0,0,0-1.1-.16,3.28,3.28,0,0,0-1.79.51,3.62,3.62,0,0,0-1.28,1.49,5.69,5.69,0,0,0-.47,2.43,5.49,5.49,0,0,0,.48,2.42,3.49,3.49,0,0,0,1.3,1.5,3.41,3.41,0,0,0,1.84.5,3.37,3.37,0,0,0,1.68-.4,2.81,2.81,0,0,0,1.13-1.16,3.52,3.52,0,0,0,.41-1.76l.41.09h-3.32v-1.19h4.21v1.19a4.73,4.73,0,0,1-.58,2.37,4,4,0,0,1-1.6,1.56,5.15,5.15,0,0,1-4.91-.13,4.63,4.63,0,0,1-1.73-2,6.9,6.9,0,0,1-.62-3,7.22,7.22,0,0,1,.36-2.36,5.11,5.11,0,0,1,1-1.79,4.39,4.39,0,0,1,1.53-1.14,4.78,4.78,0,0,1,2-.39,5.06,5.06,0,0,1,1.63.26,4.58,4.58,0,0,1,1.36.74,4.33,4.33,0,0,1,1,1.14,4.26,4.26,0,0,1,.55,1.47Z" transform="translate(-523.32 -331.32)"/>
    <path class="cls-1" d="M801.22,409V398H805a4.58,4.58,0,0,1,2.13.44,2.87,2.87,0,0,1,1.23,1.21,3.66,3.66,0,0,1,.4,1.74,3.59,3.59,0,0,1-.4,1.73,2.83,2.83,0,0,1-1.23,1.19,4.5,4.5,0,0,1-2.11.43h-3v-1.21h3a3.38,3.38,0,0,0,1.43-.26,1.68,1.68,0,0,0,.79-.74,2.82,2.82,0,0,0,0-2.3,1.69,1.69,0,0,0-.79-.77,3.24,3.24,0,0,0-1.44-.27h-2.35V409Zm5.2-5,2.72,5h-1.55l-2.68-5Z" transform="translate(-523.32 -331.32)"/>
    <path class="cls-1" d="M811.39,409H810L814,398h1.38L819.48,409h-1.4l-3.3-9.31h-.09Zm.51-4.32h5.66v1.19H811.9Z" transform="translate(-523.32 -331.32)"/>
    <path class="cls-1" d="M821.21,409V398h6.63v1.19h-5.29v3.73h4.79v1.19h-4.79v5Z" transform="translate(-523.32 -331.32)"/>
    <path class="cls-1" d="M831.47,398V409h-1.34V398Z" transform="translate(-523.32 -331.32)"/>
    <path class="cls-1" d="M834.6,409h-1.4l4-11.06h1.39L842.7,409h-1.41l-3.3-9.31h-.09Zm.52-4.32h5.66v1.19h-5.66Z" transform="translate(-523.32 -331.32)"/>
  </g>
</svg>
